<svg width="120" height="120" viewBox="0 0 120 120" fill="none" xmlns="http://www.w3.org/2000/svg">
<path d="M0 42C0 18.804 18.804 0 42 0H78C101.196 0 120 18.804 120 42V78C120 101.196 101.196 120 78 120H42C18.804 120 0 101.196 0 78V42Z" fill="url(#paint0_radial_6_271)"/>
<path d="M60 87.3333C61.258 87.3333 62.2778 88.3531 62.2778 89.6111V98.7222C62.2778 99.9802 61.258 101 60 101C58.742 101 57.7222 99.9802 57.7222 98.7222V89.6111C57.7222 88.3531 58.742 87.3333 60 87.3333Z" fill="white"/>
<path fill-rule="evenodd" clip-rule="evenodd" d="M60.079 39.5C71.4007 39.5002 80.579 48.6783 80.579 60C80.579 71.3217 71.4007 80.4998 60.079 80.5C55.6513 80.5 51.552 79.0952 48.2007 76.7085L35.2903 89.6211C33.9561 90.9554 31.7921 90.9554 30.4578 89.6211C29.1236 88.2868 29.1236 86.1229 30.4578 84.7886L43.3682 71.8783C40.9819 68.5271 39.579 64.4274 39.579 60C39.579 48.6782 48.7571 39.5 60.079 39.5ZM60.079 46.3333C52.5311 46.3333 46.4123 52.4521 46.4123 60C46.4123 67.5479 52.5311 73.6667 60.079 73.6667C67.6267 73.6665 73.7456 67.5478 73.7456 60C73.7456 52.4522 67.6267 46.3335 60.079 46.3333Z" fill="white"/>
<path d="M79.3277 79.3277C80.2173 78.4383 81.6591 78.4383 82.5487 79.3277L86.5759 83.3539C87.4654 84.2434 87.4654 85.6864 86.5759 86.5759C85.6864 87.4654 84.2434 87.4654 83.3539 86.5759L79.3277 82.5487C78.4382 81.6591 78.4382 80.2173 79.3277 79.3277Z" fill="white"/>
<path d="M30.3889 57.7222C31.6469 57.7222 32.6667 58.742 32.6667 60C32.6667 61.258 31.6469 62.2778 30.3889 62.2778H21.2778C20.0198 62.2778 19 61.258 19 60C19 58.742 20.0198 57.7222 21.2778 57.7222H30.3889Z" fill="white"/>
<path d="M98.7222 57.7222C99.9802 57.7222 101 58.742 101 60C101 61.258 99.9802 62.2778 98.7222 62.2778H89.6111C88.3531 62.2778 87.3333 61.258 87.3333 60C87.3333 58.742 88.3531 57.7222 89.6111 57.7222H98.7222Z" fill="white"/>
<path d="M33.4241 33.4241C34.3136 32.5346 35.7566 32.5346 36.6461 33.4241L40.6723 37.4513C41.5617 38.3409 41.5618 39.7827 40.6723 40.6723C39.7827 41.5617 38.3409 41.5617 37.4513 40.6723L33.4241 36.6461C32.5346 35.7566 32.5346 34.3136 33.4241 33.4241Z" fill="white"/>
<path d="M83.3539 33.4241C84.2434 32.5346 85.6864 32.5346 86.5759 33.4241C87.4654 34.3136 87.4654 35.7566 86.5759 36.6461L82.5487 40.6723C81.6591 41.5617 80.2173 41.5618 79.3277 40.6723C78.4383 39.7827 78.4383 38.3409 79.3277 37.4513L83.3539 33.4241Z" fill="white"/>
<path d="M60 19C61.258 19 62.2778 20.0198 62.2778 21.2778V30.3889C62.2778 31.6469 61.258 32.6667 60 32.6667C58.742 32.6667 57.7222 31.6469 57.7222 30.3889V21.2778C57.7222 20.0198 58.742 19 60 19Z" fill="white"/>
<defs>
<radialGradient id="paint0_radial_6_271" cx="0" cy="0" r="1" gradientUnits="userSpaceOnUse" gradientTransform="translate(-4.00001 -8.49999) rotate(23.9444) scale(226.863)">
<stop offset="0.125183" stop-color="#FFD04D"/>
<stop offset="0.75" stop-color="#D91900"/>
</radialGradient>
</defs>
</svg>
