<svg width="97" height="97" viewBox="0 0 97 97" fill="none" xmlns="http://www.w3.org/2000/svg">
<path d="M48.5 80.8333C49.9881 80.8333 51.1944 82.0397 51.1944 83.5278V94.3056C51.1944 95.7937 49.9881 97 48.5 97C47.0119 97 45.8056 95.7937 45.8056 94.3056V83.5278C45.8056 82.0397 47.0119 80.8333 48.5 80.8333Z" fill="white"/>
<path fill-rule="evenodd" clip-rule="evenodd" d="M48.5934 24.25C61.9862 24.2502 72.8434 35.1072 72.8434 48.5C72.8434 61.8928 61.9862 72.7498 48.5934 72.75C43.3558 72.75 38.5066 71.0882 34.5423 68.265L19.2703 83.5396C17.6919 85.1179 15.1322 85.1179 13.5538 83.5396C11.9754 81.9613 11.9754 79.4015 13.5538 77.8231L28.8258 62.5511C26.0029 58.587 24.3434 53.7372 24.3434 48.5C24.3434 35.1071 35.2005 24.25 48.5934 24.25ZM48.5934 32.3333C39.6648 32.3333 32.4267 39.5714 32.4267 48.5C32.4267 57.4286 39.6648 64.6667 48.5934 64.6667C57.5219 64.6665 64.7601 57.4285 64.7601 48.5C64.7601 39.5715 57.5219 32.3335 48.5934 32.3333Z" fill="white"/>
<path d="M71.3633 71.3633C72.4155 70.3111 74.1212 70.3111 75.1734 71.3633L79.9374 76.1259C80.9895 77.1782 80.9895 78.8852 79.9374 79.9374C78.8852 80.9896 77.1782 80.9895 76.1259 79.9374L71.3633 75.1734C70.3111 74.1212 70.3111 72.4155 71.3633 71.3633Z" fill="white"/>
<path d="M13.4722 45.8056C14.9603 45.8056 16.1667 47.0119 16.1667 48.5C16.1667 49.9881 14.9603 51.1944 13.4722 51.1944H2.69444C1.20634 51.1944 3.25235e-08 49.9881 0 48.5C-1.51586e-08 47.0119 1.20634 45.8056 2.69444 45.8056H13.4722Z" fill="white"/>
<path d="M94.3056 45.8056C95.7937 45.8056 97 47.0119 97 48.5C97 49.9881 95.7937 51.1944 94.3056 51.1944H83.5278C82.0397 51.1944 80.8333 49.9881 80.8333 48.5C80.8333 47.0119 82.0397 45.8056 83.5278 45.8056H94.3056Z" fill="white"/>
<path d="M17.0626 17.0626C18.1148 16.0104 19.8218 16.0105 20.8741 17.0626L25.6367 21.8266C26.6889 22.8788 26.6889 24.5845 25.6367 25.6367C24.5845 26.6889 22.8788 26.6889 21.8266 25.6367L17.0626 20.8741C16.0105 19.8218 16.0105 18.1148 17.0626 17.0626Z" fill="white"/>
<path d="M76.1259 17.0626C77.1782 16.0105 78.8852 16.0105 79.9374 17.0626C80.9896 18.1148 80.9895 19.8218 79.9374 20.8741L75.1734 25.6367C74.1212 26.6889 72.4155 26.6889 71.3633 25.6367C70.3111 24.5845 70.3111 22.8788 71.3633 21.8266L76.1259 17.0626Z" fill="white"/>
<path d="M48.5 0C49.9881 1.43274e-07 51.1944 1.20634 51.1944 2.69444V13.4722C51.1944 14.9603 49.9881 16.1667 48.5 16.1667C47.0119 16.1667 45.8056 14.9603 45.8056 13.4722V2.69444C45.8056 1.20634 47.0119 6.50469e-08 48.5 0Z" fill="white"/>
</svg>
